HIERARCHY
ROOT hip
{
  OFFSET 0 0 0
  CHANNELS 6 Xposition Yposition Zposition Zrotation Yrotation Xrotation
  JOINT abdomen
  {
    OFFSET 0 20.6881 -0.73152
    CHANNELS 3 Zrotation Xrotation Yrotation
    JOINT chest
    {
      OFFSET 0 11.7043 -0.48768
      CHANNELS 3 Zrotation Xrotation Yrotation
      JOINT neck
      {
        OFFSET 0 22.1894 -2.19456
        CHANNELS 3 Zrotation Xrotation Yrotation
        JOINT head
        {
          OFFSET -0.24384 7.07133 1.2192
          CHANNELS 3 Zrotation Xrotation Yrotation
          JOINT leftEye
          {
            OFFSET 4.14528 8.04674 8.04672
            CHANNELS 3 Zrotation Xrotation Yrotation
            End Site
            {
              OFFSET 1 0 0
            }
          }
          JOINT rightEye
          {
            OFFSET -3.6576 8.04674 8.04672
            CHANNELS 3 Zrotation Xrotation Yrotation
            End Site
            {
              OFFSET 1 0 0
            }
          }
        }
      }
      JOINT rCollar
      {
        OFFSET -2.68224 19.2634 -4.8768
        CHANNELS 3 Zrotation Xrotation Yrotation
        JOINT rShldr
        {
          OFFSET -8.77824 -1.95073 1.46304
          CHANNELS 3 Zrotation Xrotation Yrotation
          JOINT rForeArm
          {
            OFFSET -28.1742 -1.7115 0.48768
            CHANNELS 3 Zrotation Xrotation Yrotation
            JOINT rHand
            {
              OFFSET -22.5879 0.773209 7.07136
              CHANNELS 3 Zrotation Xrotation Yrotation
              JOINT rThumb1
              {
                OFFSET -1.2192 -0.487915 3.41376
                CHANNELS 3 Zrotation Xrotation Yrotation
                JOINT rThumb2
                {
                  OFFSET -3.37035 -0.52449 3.41376
                  CHANNELS 3 Zrotation Xrotation Yrotation
                  End Site
                  {
                    OFFSET -1.78271 -1.18214 1.43049
                  }
                }
              }
              JOINT rIndex1
              {
                OFFSET -7.75947 0.938293 5.60832
                CHANNELS 3 Zrotation Xrotation Yrotation
                JOINT rIndex2
                {
                  OFFSET -2.54057 -0.884171 1.56538
                  CHANNELS 3 Zrotation Xrotation Yrotation
                  End Site
                  {
                    OFFSET -1.62519 -0.234802 1.16502
                  }
                }
              }
              JOINT rMid1
              {
                OFFSET -8.24714 1.18213 3.41376
                CHANNELS 3 Zrotation Xrotation Yrotation
                JOINT rMid2
                {
                  OFFSET -3.10165 -0.590103 1.0647
                  CHANNELS 3 Zrotation Xrotation Yrotation
                  End Site
                  {
                    OFFSET -2.48547 -0.328903 0.83742
                  }
                }
              }
              JOINT rRing1
              {
                OFFSET -8.82822 0.546677 1.51678
                CHANNELS 3 Zrotation Xrotation Yrotation
                JOINT rRing2
                {
                  OFFSET -2.60934 -0.819778 -0.0198488
                  CHANNELS 3 Zrotation Xrotation Yrotation
                  End Site
                  {
                    OFFSET -2.33842 -0.294052 0.168128
                  }
                }
              }
              JOINT rPinky1
              {
                OFFSET -8.27202 -0.0477905 -0.4584
                CHANNELS 3 Zrotation Xrotation Yrotation
                JOINT rPinky2
                {
                  OFFSET -1.82734 -0.647385 -0.700984
                  CHANNELS 3 Zrotation Xrotation Yrotation
                  End Site
                  {
                    OFFSET -1.69225 -0.51767 -0.607171
                  }
                }
              }
            }
          }
        }
      }
      JOINT lCollar
      {
        OFFSET 2.68224 19.2634 -4.8768
        CHANNELS 3 Zrotation Xrotation Yrotation
        JOINT lShldr
        {
          OFFSET 8.77824 -1.95073 1.46304
          CHANNELS 3 Zrotation Xrotation Yrotation
          JOINT lForeArm
          {
            OFFSET 28.1742 -1.7115 0.48768
            CHANNELS 3 Zrotation Xrotation Yrotation
            JOINT lHand
            {
              OFFSET 22.5879 0.773209 7.07136
              CHANNELS 3 Zrotation Xrotation Yrotation
              JOINT lThumb1
              {
                OFFSET 1.2192 -0.487915 3.41376
                CHANNELS 3 Zrotation Xrotation Yrotation
                JOINT lThumb2
                {
                  OFFSET 3.37035 -0.52449 3.41376
                  CHANNELS 3 Zrotation Xrotation Yrotation
                  End Site
                  {
                    OFFSET 1.78271 -1.18214 1.43049
                  }
                }
              }
              JOINT lIndex1
              {
                OFFSET 7.75947 0.938293 5.60832
                CHANNELS 3 Zrotation Xrotation Yrotation
                JOINT lIndex2
                {
                  OFFSET 2.54057 -0.884171 1.56538
                  CHANNELS 3 Zrotation Xrotation Yrotation
                  End Site
                  {
                    OFFSET 1.62519 -0.234802 1.16502
                  }
                }
              }
              JOINT lMid1
              {
                OFFSET 8.24714 1.18213 3.41376
                CHANNELS 3 Zrotation Xrotation Yrotation
                JOINT lMid2
                {
                  OFFSET 3.10165 -0.590103 1.0647
                  CHANNELS 3 Zrotation Xrotation Yrotation
                  End Site
                  {
                    OFFSET 2.48547 -0.328903 0.83742
                  }
                }
              }
              JOINT lRing1
              {
                OFFSET 8.82822 0.546677 1.51678
                CHANNELS 3 Zrotation Xrotation Yrotation
                JOINT lRing2
                {
                  OFFSET 2.60934 -0.819778 -0.0198488
                  CHANNELS 3 Zrotation Xrotation Yrotation
                  End Site
                  {
                    OFFSET 2.33842 -0.294052 0.168128
                  }
                }
              }
              JOINT lPinky1
              {
                OFFSET 8.27202 -0.0477905 -0.4584
                CHANNELS 3 Zrotation Xrotation Yrotation
                JOINT lPinky2
                {
                  OFFSET 1.82734 -0.647385 -0.700984
                  CHANNELS 3 Zrotation Xrotation Yrotation
                  End Site
                  {
                    OFFSET 1.69225 -0.51767 -0.607171
                  }
                }
              }
            }
          }
        }
      }
    }
  }
  JOINT rButtock
  {
    OFFSET -8.77824 4.35084 1.2192
    CHANNELS 3 Zrotation Xrotation Yrotation
    JOINT rThigh
    {
      OFFSET 0 -1.70687 -2.19456
      CHANNELS 3 Zrotation Xrotation Yrotation
      JOINT rShin
      {
        OFFSET 0 -36.8199 0.73152
        CHANNELS 3 Zrotation Xrotation Yrotation
        JOINT rFoot
        {
          OFFSET 0.73152 -45.1104 -5.12064
          CHANNELS 3 Zrotation Xrotation Yrotation
          End Site
          {
            OFFSET -1.1221 -3.69964 12.103
          }
        }
      }
    }
  }
  JOINT lButtock
  {
    OFFSET 8.77824 4.35084 1.2192
    CHANNELS 3 Zrotation Xrotation Yrotation
    JOINT lThigh
    {
      OFFSET 0 -1.70687 -2.19456
      CHANNELS 3 Zrotation Xrotation Yrotation
      JOINT lShin
      {
        OFFSET 0 -36.8199 0.73152
        CHANNELS 3 Zrotation Xrotation Yrotation
        JOINT lFoot
        {
          OFFSET -0.73152 -45.1104 -5.12064
          CHANNELS 3 Zrotation Xrotation Yrotation
          End Site
          {
            OFFSET 1.1221 -3.69964 12.103
          }
        }
      }
    }
  }
}
MOTION
Frames:	9
Frame Time:	0.00833333
4.75591 84.9173 -170.479 0.0 0.0 0.0 -0.140626 -0.000295011 -0.00400527 -0.038767 -0.000394542 -0.00671566 4.41654e-15 7.95139e-16 1.55302e-18 1.31571e-14 9.54166e-15 1.55301e-18 -0.0 0.0 0.0 -0.0 0.0 0.0 2.23507e-15 0.0 9.93923e-17 4.76903e-14 2.04997e-16 1.19271e-15 7.94393e-13 -2.35759e-13 -1.90833e-14 9.08158e-12 2.4376e-13 1.90833e-14 2.14214e-11 1.22518e-14 2.22639e-14 3.69875e-11 1.90833e-14 3.57812e-14 2.14258e-11 1.27222e-14 1.59028e-14 7.73091 5.47488 0.417314 2.14198e-11 1.17283e-14 2.54444e-14 2.90554 0.965183 0.102902 2.14297e-11 1.2424e-14 2.3059e-14 10.2786 0.731801 0.0259123 2.14141e-11 1.47101e-14 3.18055e-14 2.22167 -0.733487 -0.20892 2.13833e-15 -3.88251e-19 -9.93923e-17 4.41758e-14 2.11209e-16 -7.95139e-16 7.90765e-13 2.38939e-13 6.36111e-15 9.08065e-12 -2.33597e-13 1.27222e-14 2.14168e-11 7.27437e-15 2.22639e-14 3.6997e-11 3.18055e-15 4.21423e-14 2.14111e-11 1.07344e-14 3.49861e-14 -7.73091 5.47488 -0.417314 2.14168e-11 7.05686e-15 1.90833e-14 -2.90554 0.965183 -0.102902 2.14099e-11 7.15625e-15 2.38542e-14 -10.2786 0.731801 -0.0259123 2.14214e-11 7.95139e-15 1.59028e-14 -2.22167 -0.733487 0.20892 -2.03217e-16 0.0 -3.88251e-19 0.415461 -2.89234 -0.0363697 -0.00657585 -0.313962 -0.0578459 -0.521694 3.20536 0.12542 2.03217e-16 0.0 3.88251e-19 -0.629344 -3.43714 0.0497309 0.00497782 0.672916 0.04323 0.523135 2.76331 -0.11651
7.63447 83.3632 -172.428 -1.5116 36.7293 1.1043 0.721848 -0.757271 5.56484 0.397457 -0.413787 1.57827 3.9707 4.933 5.05191 -6.75254 -6.88781 9.02711 -0.0 0.0 0.0 -0.0 0.0 0.0 4.30525e-15 8.31826e-15 6.62349e-14 20.0283 8.63109 2.97224 -6.28623 -3.4384 9.10405 0.0335028 -4.0664 -0.566326 -5.51794e-10 -5.65224e-10 2.05166e-10 -9.56912e-10 -9.73247e-10 3.49784e-10 -5.5179e-10 -5.65224e-10 2.05161e-10 7.73091 5.47488 0.417314 -5.51795e-10 -5.65225e-10 2.05168e-10 2.90554 0.965183 0.102902 -5.51785e-10 -5.65225e-10 2.05166e-10 10.2786 0.731801 0.0259123 -5.518e-10 -5.65222e-10 2.05173e-10 2.22167 -0.733487 -0.20892 4.21599e-15 8.31651e-15 6.5993e-14 -23.3821 -1.46455 2.00365 2.23594 -0.798858 -3.69268 -0.00111512 0.793339 -0.111464 -4.19418e-10 8.19951e-10 4.58128e-10 -7.2455e-10 1.42025e-09 7.93894e-10 -4.19423e-10 8.19954e-10 4.58136e-10 -7.73091 5.47488 -0.417314 -4.19419e-10 8.19951e-10 4.58125e-10 -2.90554 0.965183 -0.102902 -4.19425e-10 8.19951e-10 4.58127e-10 -10.2786 0.731801 -0.0259123 -4.19413e-10 8.19952e-10 4.58117e-10 -2.22167 -0.733487 0.20892 -2.03217e-16 0.0 -3.88251e-19 -0.258051 -2.92092 -3.95417 0.0326969 6.87101 0.123434 -1.94832 -1.815 -11.1303 2.03217e-16 0.0 3.88251e-19 0.460159 -8.14038 -2.6967 0.00340142 9.41932 -0.0760099 0.534029 -0.544012 0.508098
7.60084 83.3649 -172.424 -1.4854 36.6159 1.1157 1.79351 -1.53452 11.4413 0.918059 -0.842091 3.25073 7.19445 10.0172 10.5227 -11.5225 -13.5729 19.0024 -0.0 0.0 0.0 -0.0 0.0 0.0 7.75703e-15 1.66654e-14 1.51008e-13 40.1352 17.6861 6.3722 -11.7594 -6.78518 18.8335 -0.0194894 -8.38572 -1.17766 -1.24862e-09 -1.23756e-09 4.4815e-10 -2.16501e-09 -2.13074e-09 7.63896e-10 -1.24862e-09 -1.23756e-09 4.48146e-10 7.73091 5.47488 0.417314 -1.24862e-09 -1.23756e-09 4.48152e-10 2.90554 0.965183 0.102902 -1.24861e-09 -1.23756e-09 4.48149e-10 10.2786 0.731801 0.0259123 -1.24863e-09 -1.23756e-09 4.48154e-10 2.22167 -0.733487 -0.20892 7.67726e-15 1.6662e-14 1.50719e-13 -48.0169 -3.08096 4.13051 4.47959 -1.62814 -7.58493 0.00120332 1.66475 -0.233974 -9.38335e-10 1.82932e-09 1.02359e-09 -1.62098e-09 3.16854e-09 1.7737e-09 -9.38339e-10 1.82933e-09 1.0236e-09 -7.73091 5.47488 -0.417314 -9.38336e-10 1.82932e-09 1.02359e-09 -2.90554 0.965183 -0.102902 -9.38341e-10 1.82932e-09 1.02359e-09 -10.2786 0.731801 -0.0259123 -9.38329e-10 1.82932e-09 1.02358e-09 -2.22167 -0.733487 0.20892 -2.03217e-16 0.0 -3.88251e-19 -0.975454 -2.93703 -8.09636 0.023457 14.4679 0.32357 -5.55636 -6.61973 -23.1839 2.03217e-16 0.0 3.88251e-19 1.10856 -13.0702 -5.68947 0.0431227 18.6658 -0.211062 0.623166 -4.04047 1.16523
7.55772 83.3655 -172.416 -1.5013 36.4883 1.1132 2.88156 -2.18567 16.7136 1.33845 -1.23678 4.74924 9.26584 14.3323 15.5966 -13.7251 -18.5707 28.4915 -0.0 0.0 0.0 -0.0 0.0 0.0 8.4456e-15 2.49548e-14 1.98506e-13 57.1631 25.599 9.78415 -15.6831 -9.27515 27.6544 -0.145351 -12.1944 -1.73383 -1.69822e-09 -1.6957e-09 6.15454e-10 -2.94471e-09 -2.91978e-09 1.04928e-09 -1.69822e-09 -1.6957e-09 6.1545e-10 7.73091 5.47488 0.417314 -1.69822e-09 -1.6957e-09 6.15454e-10 2.90554 0.965183 0.102902 -1.69821e-09 -1.6957e-09 6.15451e-10 10.2786 0.731801 0.0259123 -1.69823e-09 -1.6957e-09 6.15455e-10 2.22167 -0.733487 -0.20892 8.37131e-15 2.49503e-14 1.98178e-13 -69.8388 -4.37212 6.02658 6.40083 -2.35679 -11.0865 0.00592161 2.37998 -0.334648 -1.30109e-09 2.45984e-09 1.37434e-09 -2.24764e-09 4.26074e-09 2.3816e-09 -1.30109e-09 2.45984e-09 1.37434e-09 -7.73091 5.47488 -0.417314 -1.30109e-09 2.45984e-09 1.37434e-09 -2.90554 0.965183 -0.102902 -1.3011e-09 2.45984e-09 1.37433e-09 -10.2786 0.731801 -0.0259123 -1.30108e-09 2.45984e-09 1.37432e-09 -2.22167 -0.733487 0.20892 -2.03217e-16 0.0 -3.88251e-19 -1.6158 -2.9358 -11.7901 -0.0329584 21.2402 0.51856 -10.4347 -9.93652 -34.2068 2.03217e-16 0.0 3.88251e-19 1.23394 -17.3923 -8.49905 0.119983 26.9117 -0.349229 0.773215 -7.15536 1.77077
7.51486 83.3682 -172.399 -1.5814 36.4083 1.0462 3.70752 -2.60232 20.465 1.46225 -1.55086 5.81202 10.3409 17.1716 19.2574 -14.1273 -21.3542 35.4213 -0.0 0.0 0.0 -0.0 0.0 0.0 2.22612e-15 3.31e-14 1.52816e-13 68.684 30.9475 12.3826 -17.9358 -10.6178 33.8764 -0.273772 -14.7311 -2.11766 -1.52976e-09 -1.61835e-09 5.93555e-10 -2.65342e-09 -2.78769e-09 1.01285e-09 -1.52975e-09 -1.61835e-09 5.93552e-10 7.73091 5.47488 0.417314 -1.52976e-09 -1.61835e-09 5.93555e-10 2.90554 0.965183 0.102902 -1.52975e-09 -1.61835e-09 5.93552e-10 10.2786 0.731801 0.0259123 -1.52976e-09 -1.61835e-09 5.93555e-10 2.22167 -0.733487 -0.20892 2.14731e-15 3.30953e-14 1.52468e-13 -84.8713 -4.87332 7.32731 7.72749 -2.87057 -13.6035 0.00898111 2.7048 -0.38042 -1.27344e-09 2.14321e-09 1.18828e-09 -2.19987e-09 3.71272e-09 2.05971e-09 -1.27344e-09 2.14321e-09 1.18828e-09 -7.73091 5.47488 -0.417314 -1.27344e-09 2.14321e-09 1.18828e-09 -2.90554 0.965183 -0.102902 -1.27344e-09 2.14321e-09 1.18828e-09 -10.2786 0.731801 -0.0259123 -1.27343e-09 2.14321e-09 1.18826e-09 -2.22167 -0.733487 0.20892 -2.03217e-16 0.0 -3.88251e-19 -2.0562 -2.92165 -14.3627 -0.102801 25.9521 0.668977 -14.6049 -11.4665 -42.0221 2.03217e-16 0.0 3.88251e-19 1.05978 -20.3366 -10.5752 0.201931 32.6566 -0.462089 0.924949 -9.31961 2.23204
7.47362 83.3706 -172.388 -1.6187 36.3157 1.012 4.04294 -2.74474 22.0933 1.1044 -1.76222 6.26712 10.8899 18.2648 20.6582 -13.8871 -22.478 38.0762 -0.0 0.0 0.0 -0.0 0.0 0.0 -1.65709e-14 3.87906e-14 -6.39656e-14 73.7196 32.9311 13.1676 -18.7206 -11.0378 36.3203 -0.323027 -15.4847 -2.2349 -2.06732e-10 -5.2544e-10 2.12126e-10 -3.6144e-10 -9.08359e-10 3.64598e-10 -2.06728e-10 -5.2544e-10 2.12123e-10 7.73091 5.47488 0.417314 -2.06731e-10 -5.25442e-10 2.12126e-10 2.90554 0.965183 0.102902 -2.06722e-10 -5.25442e-10 2.12124e-10 10.2786 0.731801 0.0259123 -2.06735e-10 -5.25441e-10 2.12128e-10 2.22167 -0.733487 -0.20892 -1.66715e-14 3.87872e-14 -6.43049e-14 -90.4645 -4.23008 7.79508 8.31986 -3.11205 -14.7474 0.00666491 2.42998 -0.341698 -5.45708e-10 2.3292e-11 -2.67339e-11 -9.42653e-10 4.17893e-11 -4.43172e-11 -5.45711e-10 2.3292e-11 -2.67358e-11 -7.73091 5.47488 -0.417314 -5.45709e-10 2.32918e-11 -2.67382e-11 -2.90554 0.965183 -0.102902 -5.45715e-10 2.32911e-11 -2.6737e-11 -10.2786 0.731801 -0.0259123 -5.45702e-10 2.32927e-11 -2.67492e-11 -2.22167 -0.733487 0.20892 -2.03217e-16 0.0 -3.88251e-19 -2.21437 -2.90253 -15.3646 -0.13767 27.7784 0.731303 -16.3502 -11.8519 -45.064 2.03217e-16 0.0 3.88251e-19 0.94255 -21.4493 -11.4459 0.241853 34.901 -0.511329 1.01219 -10.1543 2.4863
7.43398 83.3733 -172.377 -1.648 36.2355 0.9789 3.99868 -2.7079 22.2028 0.398848 -1.90066 6.28781 11.2611 18.2032 20.3681 -13.5981 -22.8253 37.5299 -0.0 0.0 0.0 -0.0 0.0 0.0 -4.42134e-14 4.28351e-14 -4.0102e-13 74.4086 32.5716 12.4635 -18.6295 -10.9871 36.0341 -0.298999 -14.9658 -2.15578 1.9272e-09 1.28021e-09 -4.21602e-10 3.33574e-09 2.19721e-09 -7.12991e-10 1.92721e-09 1.28021e-09 -4.21605e-10 7.73091 5.47488 0.417314 1.92721e-09 1.28021e-09 -4.21603e-10 2.90554 0.965183 0.102902 1.92721e-09 1.28021e-09 -4.21604e-10 10.2786 0.731801 0.0259123 1.9272e-09 1.28021e-09 -4.21596e-10 2.22167 -0.733487 -0.20892 -4.4348e-14 4.28342e-14 -4.01331e-13 -89.3237 -2.77397 7.67049 8.41048 -3.16706 -14.9085 0.0021835 1.72937 -0.243077 6.74762e-10 -3.36197e-09 -1.96351e-09 1.16582e-09 -5.82042e-09 -3.39841e-09 6.7476e-10 -3.36197e-09 -1.9635e-09 -7.73091 5.47488 -0.417314 6.74764e-10 -3.36197e-09 -1.96351e-09 -2.90554 0.965183 -0.102902 6.74755e-10 -3.36197e-09 -1.96351e-09 -10.2786 0.731801 -0.0259123 6.74767e-10 -3.36197e-09 -1.96351e-09 -2.22167 -0.733487 0.20892 -2.03217e-16 0.0 -3.88251e-19 -2.17102 -2.88301 -15.2446 -0.133356 27.5438 0.722518 -16.1027 -11.8 -44.6596 2.03217e-16 0.0 3.88251e-19 0.983296 -21.2834 -11.4028 0.23769 34.6451 -0.505521 1.03499 -10.0403 2.58795
7.39791 83.3762 -172.368 -1.6595 36.1709 0.9536 3.79419 -2.60265 21.6846 -0.373839 -1.99774 6.13001 11.5323 17.6758 19.4059 -13.3605 -22.8263 35.6912 -0.0 0.0 0.0 -0.0 0.0 0.0 -7.07442e-14 4.98256e-14 -7.2118e-13 73.2366 31.2628 11.2031 -18.1736 -10.7327 34.6239 -0.249994 -13.9469 -2.00102 3.92268e-09 2.94555e-09 -1.00482e-09 6.7929e-09 5.06102e-09 -1.70427e-09 3.92269e-09 2.94555e-09 -1.00482e-09 7.73091 5.47488 0.417314 3.92268e-09 2.94555e-09 -1.00482e-09 2.90554 0.965183 0.102902 3.92269e-09 2.94555e-09 -1.00482e-09 10.2786 0.731801 0.0259123 3.92268e-09 2.94555e-09 -1.00481e-09 2.22167 -0.733487 -0.20892 -7.09124e-14 4.98273e-14 -7.21455e-13 -85.5249 -1.07583 7.29849 8.29382 -3.14381 -14.6595 -1.81066e-05 0.943349 -0.132564 1.84672e-09 -6.48969e-09 -3.74509e-09 3.19042e-09 -1.12366e-08 -6.48385e-09 1.84672e-09 -6.48969e-09 -3.74508e-09 -7.73091 5.47488 -0.417314 1.84673e-09 -6.48969e-09 -3.7451e-09 -2.90554 0.965183 -0.102902 1.84671e-09 -6.48969e-09 -3.74509e-09 -10.2786 0.731801 -0.0259123 1.84673e-09 -6.48969e-09 -3.74509e-09 -2.22167 -0.733487 0.20892 -2.03217e-16 0.0 -3.88251e-19 -2.04782 -2.86429 -14.6776 -0.113531 26.4873 0.685578 -15.0662 -11.5717 -42.881 2.03217e-16 0.0 3.88251e-19 1.08894 -20.6086 -10.988 0.21595 33.388 -0.477676 1.0264 -9.54908 2.61541
7.36445 83.379 -172.362 -1.6554 36.1222 0.9368 3.65128 -2.53772 21.4298 -0.930093 -2.08467 6.0498 11.7752 17.3709 18.7945 -13.2119 -22.8858 34.5072 -0.0 0.0 0.0 -0.0 0.0 0.0 -8.62058e-14 6.4354e-14 -8.87275e-13 72.7493 30.4213 10.2875 -17.8557 -10.5323 33.6972 -0.218619 -13.201 -1.88916 4.83034e-09 3.6175e-09 -1.2347e-09 8.36483e-09 6.21504e-09 -2.09358e-09 4.83034e-09 3.61749e-09 -1.2347e-09 7.73091 5.47488 0.417314 4.83034e-09 3.61749e-09 -1.2347e-09 2.90554 0.965183 0.102902 4.83035e-09 3.61749e-09 -1.2347e-09 10.2786 0.731801 0.0259123 4.83034e-09 3.61749e-09 -1.23469e-09 2.22167 -0.733487 -0.20892 -8.63947e-14 6.43577e-14 -8.87524e-13 -83.1785 0.288937 7.01438 8.25832 -3.14824 -14.5735 0.000208541 0.412348 -0.0579527 2.42892e-09 -7.83699e-09 -4.49454e-09 4.19604e-09 -1.35695e-08 -7.7819e-09 2.42892e-09 -7.83699e-09 -4.49453e-09 -7.73091 5.47488 -0.417314 2.42892e-09 -7.837e-09 -4.49455e-09 -2.90554 0.965183 -0.102902 2.42891e-09 -7.837e-09 -4.49453e-09 -10.2786 0.731801 -0.0259123 2.42892e-09 -7.83699e-09 -4.49454e-09 -2.22167 -0.733487 0.20892 -2.03217e-16 0.0 -3.88251e-19 -1.96553 -2.84767 -14.3381 -0.102273 25.8478 0.663686 -14.4507 -11.4177 -41.8009 2.03217e-16 0.0 3.88251e-19 1.15962 -20.1926 -10.7461 0.203777 32.6286 -0.461251 1.02496 -9.25175 2.6481
